<svg width="48" height="48" viewBox="0 0 48 48" fill="none" xmlns="http://www.w3.org/2000/svg">
<g filter="url(#filter0_d)">
<path d="M37.6068 11.3998C32.82 3.99976 23.047 1.79974 15.4678 6.39977C8.08818 10.9998 5.69478 20.9999 10.4816 28.3999L10.8805 28.9999L9.28489 35L15.2684 33.4L15.8667 33.8C18.4596 35.2 21.2519 36 24.0442 36C27.036 36 30.0277 35.2 32.6206 33.6C40.0002 28.7999 42.1942 18.9999 37.6068 11.3998ZM33.4184 26.7999C32.6206 27.9999 31.6233 28.7999 30.2272 28.9999C29.4294 28.9999 28.4321 29.3999 24.4431 27.7999C21.0525 26.1999 18.2602 23.5999 16.2656 20.5999C15.0689 19.1999 14.4706 17.3999 14.2711 15.5998C14.2711 13.9998 14.8695 12.5998 15.8667 11.5998C16.2656 11.1998 16.6645 10.9998 17.0635 10.9998H18.0607C18.4596 10.9998 18.8585 10.9998 19.058 11.7998C19.4569 12.7998 20.4541 15.1998 20.4541 15.3998C20.6536 15.5998 20.6536 15.9998 20.4541 16.1999C20.6536 16.5999 20.4541 16.9999 20.2547 17.1999C20.0552 17.3999 19.8558 17.7999 19.6563 17.9999C19.2574 18.1999 19.058 18.5999 19.2574 18.9999C20.0552 20.1999 21.0525 21.3999 22.0497 22.3999C23.2464 23.3999 24.4431 24.1999 25.8393 24.7999C26.2382 24.9999 26.6371 24.9999 26.8365 24.5999C27.036 24.1999 28.0332 23.1999 28.4321 22.7999C28.831 22.3999 29.0305 22.3999 29.4294 22.5999L32.6206 24.1999C33.0195 24.3999 33.4184 24.5999 33.6178 24.7999C33.8173 25.3999 33.8173 26.1999 33.4184 26.7999Z" fill="black"/>
</g>
<defs>
<filter id="filter0_d" x="0" y="0" width="48" height="48" filterUnits="userSpaceOnUse" color-interpolation-filters="sRGB">
<feFlood flood-opacity="0" result="BackgroundImageFix"/>
<feColorMatrix in="SourceAlpha" type="matrix" values="0 0 0 0 0 0 0 0 0 0 0 0 0 0 0 0 0 0 127 0"/>
<feOffset dy="4"/>
<feGaussianBlur stdDeviation="4"/>
<feColorMatrix type="matrix" values="0 0 0 0 0 0 0 0 0 0 0 0 0 0 0 0 0 0 0.25 0"/>
<feBlend mode="normal" in2="BackgroundImageFix" result="effect1_dropShadow"/>
<feBlend mode="normal" in="SourceGraphic" in2="effect1_dropShadow" result="shape"/>
</filter>
</defs>
</svg>
