<svg width="48" height="48" viewBox="0 0 48 48" fill="none" xmlns="http://www.w3.org/2000/svg">
<g filter="url(#filter0_d)">
<path d="M34.531 29.599L28.803 20L34.531 10.401L37.334 20L34.531 29.599ZM21.864 28.667L14.667 21.599H26.136L31.864 31.198L21.864 28.667ZM21.864 11.197L31.864 8.666L26.136 18.265H14.531C14.531 18.401 21.864 11.197 21.864 11.197ZM36.531 4L23.47 7.333L21.47 10.666H17.599L8 19.999L17.599 29.332H21.47L23.334 32.665L36.402 35.998L39.865 23.331L38.001 19.998L40.001 16.665L36.531 4Z" fill="black"/>
</g>
<defs>
<filter id="filter0_d" x="0" y="0" width="48.001" height="47.998" filterUnits="userSpaceOnUse" color-interpolation-filters="sRGB">
<feFlood flood-opacity="0" result="BackgroundImageFix"/>
<feColorMatrix in="SourceAlpha" type="matrix" values="0 0 0 0 0 0 0 0 0 0 0 0 0 0 0 0 0 0 127 0"/>
<feOffset dy="4"/>
<feGaussianBlur stdDeviation="4"/>
<feColorMatrix type="matrix" values="0 0 0 0 0 0 0 0 0 0 0 0 0 0 0 0 0 0 0.25 0"/>
<feBlend mode="normal" in2="BackgroundImageFix" result="effect1_dropShadow"/>
<feBlend mode="normal" in="SourceGraphic" in2="effect1_dropShadow" result="shape"/>
</filter>
</defs>
</svg>
