<svg width="45" height="48" viewBox="0 0 45 48" fill="none" xmlns="http://www.w3.org/2000/svg">
<g filter="url(#filter0_d)">
<path d="M28.97 14.6651C30.7977 14.6235 32.5321 14.0434 33.8055 13.0479C35.0789 12.0524 35.7911 10.7197 35.7911 9.33253C35.7911 7.94533 35.0789 6.61268 33.8055 5.61718C32.5321 4.62167 30.7977 4.04161 28.97 4H14.9102C13.0826 4.04161 11.3481 4.62167 10.0747 5.61718C8.80136 6.61268 8.08915 7.94533 8.08915 9.33253C8.08915 10.7197 8.80136 12.0524 10.0747 13.0479C11.3481 14.0434 13.0826 14.6235 14.9102 14.6651C13.0666 14.6893 11.3093 15.2619 10.0168 16.2596C8.72425 17.2574 8 18.6003 8 19.9992C8 21.3981 8.72425 22.741 10.0168 23.7388C11.3093 24.7365 13.0666 25.3091 14.9102 25.3333C13.0756 25.3674 11.3312 25.9443 10.0495 26.9408C8.76787 27.9373 8.05044 29.2744 8.05044 30.6667C8.05044 32.0589 8.76787 33.3961 10.0495 34.3925C11.3312 35.389 13.0756 35.9659 14.9102 36C16.7747 35.9992 18.5624 35.4368 19.8806 34.4364C21.1988 33.436 21.9396 32.0796 21.9401 30.6651V14.6651H28.97Z" fill="black"/>
<path d="M29.0299 25.6667C32.9124 25.6667 36.0598 23.2789 36.0598 20.3333C36.0598 17.3878 32.9124 15 29.0299 15C25.1474 15 22 17.3878 22 20.3333C22 23.2789 25.1474 25.6667 29.0299 25.6667Z" fill="black"/>
</g>
<defs>
<filter id="filter0_d" x="0" y="0" width="44.0598" height="48" filterUnits="userSpaceOnUse" color-interpolation-filters="sRGB">
<feFlood flood-opacity="0" result="BackgroundImageFix"/>
<feColorMatrix in="SourceAlpha" type="matrix" values="0 0 0 0 0 0 0 0 0 0 0 0 0 0 0 0 0 0 127 0"/>
<feOffset dy="4"/>
<feGaussianBlur stdDeviation="4"/>
<feColorMatrix type="matrix" values="0 0 0 0 0 0 0 0 0 0 0 0 0 0 0 0 0 0 0.25 0"/>
<feBlend mode="normal" in2="BackgroundImageFix" result="effect1_dropShadow"/>
<feBlend mode="normal" in="SourceGraphic" in2="effect1_dropShadow" result="shape"/>
</filter>
</defs>
</svg>
