<svg width="48" height="48" viewBox="0 0 48 48" fill="none" xmlns="http://www.w3.org/2000/svg">
<g filter="url(#filter0_d)">
<path d="M24 4C19.7565 4 15.6869 5.68571 12.6863 8.68629C9.68571 11.6869 8 15.7565 8 20C8 24.2435 9.68571 28.3131 12.6863 31.3137C15.6869 34.3143 19.7565 36 24 36C28.2435 36 32.3131 34.3143 35.3137 31.3137C38.3143 28.3131 40 24.2435 40 20C40 15.7565 38.3143 11.6869 35.3137 8.68629C32.3131 5.68571 28.2435 4 24 4ZM20.672 6.398C22.8598 5.86361 25.1442 5.86361 27.332 6.398L24 8.34L20.672 6.4V6.398ZM18.184 7.262L23.004 10.072V13.472L17.466 17.376L14.346 16.242L13.094 11.218C14.4609 9.52193 16.2034 8.16692 18.184 7.26V7.262ZM11.602 13.492L12.388 16.652L10.06 18.72C10.23 16.846 10.768 15.08 11.604 13.492H11.602ZM10.068 21.384L13.722 18.144L16.814 19.266L18.904 25.846L17.47 27.992H12.504C11.139 26.0346 10.3002 23.7591 10.068 21.384ZM14.194 29.992H17.302L18.322 32.8C16.7891 32.1184 15.391 31.1673 14.194 29.992ZM20.746 33.62L19.116 29.128L20.536 27.002H27.47L28.892 29.128L27.262 33.618C25.1201 34.1294 22.8879 34.1294 20.746 33.618V33.62ZM29.688 32.796L30.708 29.992H33.806C32.6116 31.1648 31.2169 32.1144 29.688 32.796ZM35.496 27.992H30.54L29.1 25.842L31.15 19.268L34.284 18.14L37.932 21.384C37.6998 23.7591 36.861 26.0346 35.496 27.992ZM37.942 18.716L35.622 16.654L36.408 13.51C37.236 15.09 37.772 16.85 37.942 18.716ZM34.914 11.232L33.664 16.238L30.496 17.378L25.002 13.474V10.074L29.82 7.26C31.804 8.1695 33.5488 9.52877 34.916 11.23L34.914 11.232ZM18.794 18.892L24 15.214L29.172 18.888L27.268 25H20.734L18.794 18.888V18.892Z" fill="black"/>
</g>
<defs>
<filter id="filter0_d" x="0" y="0" width="48" height="48" filterUnits="userSpaceOnUse" color-interpolation-filters="sRGB">
<feFlood flood-opacity="0" result="BackgroundImageFix"/>
<feColorMatrix in="SourceAlpha" type="matrix" values="0 0 0 0 0 0 0 0 0 0 0 0 0 0 0 0 0 0 127 0"/>
<feOffset dy="4"/>
<feGaussianBlur stdDeviation="4"/>
<feColorMatrix type="matrix" values="0 0 0 0 0 0 0 0 0 0 0 0 0 0 0 0 0 0 0.25 0"/>
<feBlend mode="normal" in2="BackgroundImageFix" result="effect1_dropShadow"/>
<feBlend mode="normal" in="SourceGraphic" in2="effect1_dropShadow" result="shape"/>
</filter>
</defs>
</svg>
