<svg width="48" height="48" viewBox="0 0 48 48" fill="none" xmlns="http://www.w3.org/2000/svg">
<g filter="url(#filter0_d)">
<path d="M24 4C32.8352 4 40 11.1648 40 20C40 28.8352 32.8352 36 24 36C15.1648 36 8 28.8352 8 20C8 11.1648 15.1648 4 24 4ZM20.8208 25.3312C21.0544 26.1904 21.0288 26.9936 20.7872 27.72L20.7008 27.96C20.4987 28.4438 20.2133 28.8884 19.8576 29.2736C18.9264 30.2864 17.6272 30.6688 17.0704 30.3472C16.4704 29.9968 16.7696 28.568 17.8496 27.4272C19.0112 26.2032 20.6752 25.4144 20.6752 25.4144V25.4112L20.8208 25.3312ZM34.0336 10.8496C33.3104 8.0064 28.5984 7.0704 24.1376 8.656C21.488 9.5984 18.6128 11.08 16.5488 13.0128C14.0912 15.3072 13.7008 17.3072 13.8608 18.1424C14.4288 21.0912 18.4704 23.0192 20.1328 24.4496V24.4576C19.6416 24.696 16.056 26.496 15.2176 28.3584C14.3168 30.3184 15.3584 31.72 16.0384 31.8976C18.1392 32.4784 20.2976 31.4176 21.4592 29.6992C22.5776 28.0176 22.48 25.8592 21.9984 24.7984C22.6592 24.6192 23.4368 24.5392 24.4368 24.6608C27.2384 24.9792 27.7984 26.7408 27.6752 27.4608C27.5568 28.1792 26.9776 28.5984 26.7776 28.7184C26.576 28.84 26.5168 28.88 26.536 28.96C26.5568 29.0784 26.6576 29.0784 26.816 29.0608C27.0368 29.0208 28.2784 28.4608 28.3376 27.0976C28.3968 25.3792 26.7568 23.4608 23.8368 23.4976C22.6368 23.52 21.8752 23.6192 21.336 23.84C21.2996 23.7836 21.2516 23.7356 21.1952 23.6992C19.3952 21.7584 16.0544 20.3984 16.1952 17.8192C16.2352 16.8784 16.5744 14.4 22.5952 11.4C27.536 8.9392 31.4768 9.6208 32.1584 11.12C33.1344 13.2576 30.056 17.24 24.9168 17.8192C22.9568 18.04 21.9376 17.28 21.6752 16.9984C21.3968 16.6976 21.3584 16.6784 21.2576 16.7408C21.096 16.8208 21.1968 17.08 21.2576 17.2416C21.4176 17.64 22.0368 18.3424 23.1184 18.7008C24.0576 19.0016 26.3568 19.1792 29.1184 18.1008C32.2176 16.9024 34.6368 13.56 33.9376 10.76L34.0336 10.8496Z" fill="black"/>
</g>
<defs>
<filter id="filter0_d" x="0" y="0" width="48" height="48" filterUnits="userSpaceOnUse" color-interpolation-filters="sRGB">
<feFlood flood-opacity="0" result="BackgroundImageFix"/>
<feColorMatrix in="SourceAlpha" type="matrix" values="0 0 0 0 0 0 0 0 0 0 0 0 0 0 0 0 0 0 127 0"/>
<feOffset dy="4"/>
<feGaussianBlur stdDeviation="4"/>
<feColorMatrix type="matrix" values="0 0 0 0 0 0 0 0 0 0 0 0 0 0 0 0 0 0 0.25 0"/>
<feBlend mode="normal" in2="BackgroundImageFix" result="effect1_dropShadow"/>
<feBlend mode="normal" in="SourceGraphic" in2="effect1_dropShadow" result="shape"/>
</filter>
</defs>
</svg>
