<svg width="48" height="44" viewBox="0 0 48 44" fill="none" xmlns="http://www.w3.org/2000/svg">
<g filter="url(#filter0_d)">
<path d="M35.7536 7.63202C34.5583 5.21067 32.367 4 29.9764 4H18.0236C15.633 4 13.4417 5.21067 12.2464 7.63202C7.6645 16.1067 6.66843 28.9399 9.85585 31.6034C13.0433 34.2668 20.2149 22.6444 24 22.6444C27.7851 22.6444 34.7575 34.2668 38.1442 31.6034C41.3316 28.9399 40.3355 16.1067 35.7536 7.63202ZM20.0157 16.1067H18.0236V18.5281H16.0315V16.1067H14.0393V13.6854H16.0315V11.264H18.0236V13.6854H20.0157V16.1067ZM30.7733 17.3174C30.7733 18.5281 29.9764 19.4966 28.9803 19.4966C27.9843 19.4966 27.1874 18.5281 27.1874 17.3174C27.1874 16.1067 27.9843 15.1382 28.9803 15.1382C29.9764 15.1382 30.7733 16.1067 30.7733 17.3174ZM34.5583 12.4747C34.5583 13.6854 33.7615 14.6539 32.7654 14.6539C31.7693 14.6539 30.9725 13.6854 30.9725 12.4747C30.9725 11.264 31.7693 10.2955 32.7654 10.2955C33.7615 10.2955 34.5583 11.264 34.5583 12.4747Z" fill="black"/>
</g>
<defs>
<filter id="filter0_d" x="0" y="0" width="48" height="44" filterUnits="userSpaceOnUse" color-interpolation-filters="sRGB">
<feFlood flood-opacity="0" result="BackgroundImageFix"/>
<feColorMatrix in="SourceAlpha" type="matrix" values="0 0 0 0 0 0 0 0 0 0 0 0 0 0 0 0 0 0 127 0"/>
<feOffset dy="4"/>
<feGaussianBlur stdDeviation="4"/>
<feColorMatrix type="matrix" values="0 0 0 0 0 0 0 0 0 0 0 0 0 0 0 0 0 0 0.25 0"/>
<feBlend mode="normal" in2="BackgroundImageFix" result="effect1_dropShadow"/>
<feBlend mode="normal" in="SourceGraphic" in2="effect1_dropShadow" result="shape"/>
</filter>
</defs>
</svg>
