<svg width="32" height="32" viewBox="0 0 32 32" fill="none" xmlns="http://www.w3.org/2000/svg">
<path d="M31.3958 14.5717L17.4218 0.605119C17.2305 0.413306 17.0032 0.261122 16.7529 0.157285C16.5026 0.053449 16.2343 0 15.9633 0C15.6924 0 15.4241 0.053449 15.1738 0.157285C14.9235 0.261122 14.6962 0.413306 14.5048 0.605119L11.6088 3.50563L15.2908 7.182C15.7234 7.0353 16.1883 7.01272 16.6331 7.11681C17.0778 7.2209 17.4844 7.44749 17.8068 7.7709C18.4948 8.45878 18.6868 9.44762 18.3958 10.3015L21.9378 13.8479C22.3718 13.6968 22.8396 13.6713 23.2874 13.7745C23.7352 13.8776 24.1447 14.1051 24.4688 14.4308C25.4328 15.3886 25.4328 16.9403 24.4688 17.8992C24.2416 18.1269 23.9716 18.3075 23.6744 18.4308C23.3772 18.554 23.0586 18.6175 22.7368 18.6175C22.4151 18.6175 22.0965 18.554 21.7993 18.4308C21.5021 18.3075 21.2321 18.1269 21.0048 17.8992C20.6635 17.5577 20.4301 17.1234 20.3338 16.6504C20.2374 16.1773 20.2823 15.6864 20.4628 15.2386L17.1448 11.9372V20.6387C17.3788 20.7537 17.6028 20.9097 17.7958 21.1026C18.7488 22.0665 18.7488 23.6122 17.7958 24.571C17.3339 25.0311 16.7084 25.2894 16.0563 25.2894C15.4043 25.2894 14.7788 25.0311 14.3168 24.571C14.031 24.2851 13.8202 23.933 13.7034 23.5459C13.5865 23.1589 13.5671 22.749 13.647 22.3526C13.7269 21.9563 13.9035 21.5859 14.1612 21.2743C14.4188 20.9627 14.7495 20.7196 15.1238 20.5667V11.7822C14.8253 11.6554 14.5532 11.4736 14.3218 11.2463C13.9777 10.9032 13.7439 10.4651 13.6501 9.98833C13.5564 9.51151 13.6072 9.01759 13.7958 8.56976L10.1808 4.93538L0.597844 14.5118C0.214749 14.9005 0 15.4243 0 15.97C0 16.5157 0.214749 17.0395 0.597844 17.4283L14.5718 31.3949C14.7632 31.5867 14.9905 31.7389 15.2408 31.8427C15.4911 31.9466 15.7594 32 16.0303 32C16.3013 32 16.5696 31.9466 16.8199 31.8427C17.0702 31.7389 17.2975 31.5867 17.4888 31.3949L31.3948 17.4912C31.5867 17.2999 31.7389 17.0726 31.8428 16.8224C31.9466 16.5722 32.0001 16.3039 32.0001 16.033C32.0001 15.7621 31.9466 15.4938 31.8428 15.2436C31.7389 14.9934 31.5867 14.7661 31.3948 14.5747L31.3958 14.5717Z" fill="black"/>
</svg>
