<svg width="25" height="28" viewBox="0 0 25 28" fill="none" xmlns="http://www.w3.org/2000/svg">
<path d="M23.71 22.72C21.1049 22.6906 18.5792 21.8191 16.5104 20.2357C14.4415 18.6522 12.9405 16.4419 12.2316 13.935C11.5228 11.428 11.644 8.75896 12.5774 6.32663C13.5107 3.89429 15.206 1.82924 17.41 0.44C16.2964 0.150506 15.1506 0.00267219 14 0C10.287 0 6.72601 1.475 4.1005 4.1005C1.475 6.72601 0 10.287 0 14C0 17.713 1.475 21.274 4.1005 23.8995C6.72601 26.525 10.287 28 14 28C16.1034 27.9981 18.1787 27.5161 20.0676 26.5907C21.9566 25.6653 23.6093 24.3209 24.9 22.66C24.5046 22.7002 24.1074 22.7202 23.71 22.72V22.72Z" fill="black"/>
</svg>
