<svg width="48" height="44" viewBox="0 0 48 44" fill="none" xmlns="http://www.w3.org/2000/svg">
<g filter="url(#filter0_d)">
<path d="M14.5202 4H8.93145C8.41915 4 8 4.525 8 5.16667V30.8333C8 31.475 8.41915 32 8.93145 32H14.5202C15.0325 32 15.4516 31.475 15.4516 30.8333V5.16667C15.4516 4.525 15.0325 4 14.5202 4ZM13.5887 11H9.8629V8.66667H13.5887V11Z" fill="black"/>
<path d="M21.9718 4H16.3831C15.8708 4 15.4516 4.525 15.4516 5.16667V30.8333C15.4516 31.475 15.8708 32 16.3831 32H21.9718C22.4841 32 22.9032 31.475 22.9032 30.8333V5.16667C22.9032 4.525 22.4841 4 21.9718 4ZM21.0403 11H17.3145V8.66667H21.0403V11Z" fill="black"/>
<path d="M28.4053 4.96479L23.4146 8.11479C23.1948 8.25476 23.028 8.4978 22.9506 8.79102C22.8731 9.08424 22.8912 9.40391 23.001 9.68046L31.3841 30.5171C31.4958 30.7924 31.6899 31.0013 31.924 31.0983C32.1581 31.1954 32.4133 31.1726 32.6341 31.0351L37.6248 27.8851C37.8446 27.7452 38.0114 27.5021 38.0889 27.2089C38.1663 26.9157 38.1482 26.596 38.0384 26.3195L29.6553 5.48279C29.5436 5.20748 29.3495 4.99858 29.1154 4.90157C28.8813 4.80456 28.6261 4.82728 28.4053 4.96479Z" fill="black"/>
<path d="M39.9991 17.9999C39.9991 18.3093 39.901 18.6061 39.7263 18.8249C39.5516 19.0437 39.3147 19.1666 39.0676 19.1666C38.8206 19.1666 38.5837 19.0437 38.409 18.8249C38.2343 18.6061 38.1362 18.3093 38.1362 17.9999C38.1362 17.6905 38.2343 17.3938 38.409 17.175C38.5837 16.9562 38.8206 16.8333 39.0676 16.8333C39.3147 16.8333 39.5516 16.9562 39.7263 17.175C39.901 17.3938 39.9991 17.6905 39.9991 17.9999Z" fill="black"/>
</g>
<defs>
<filter id="filter0_d" x="0" y="0" width="47.9991" height="44" filterUnits="userSpaceOnUse" color-interpolation-filters="sRGB">
<feFlood flood-opacity="0" result="BackgroundImageFix"/>
<feColorMatrix in="SourceAlpha" type="matrix" values="0 0 0 0 0 0 0 0 0 0 0 0 0 0 0 0 0 0 127 0"/>
<feOffset dy="4"/>
<feGaussianBlur stdDeviation="4"/>
<feColorMatrix type="matrix" values="0 0 0 0 0 0 0 0 0 0 0 0 0 0 0 0 0 0 0.25 0"/>
<feBlend mode="normal" in2="BackgroundImageFix" result="effect1_dropShadow"/>
<feBlend mode="normal" in="SourceGraphic" in2="effect1_dropShadow" result="shape"/>
</filter>
</defs>
</svg>
