<svg width="48" height="48" viewBox="0 0 48 48" fill="none" xmlns="http://www.w3.org/2000/svg">
<g filter="url(#filter0_d)">
<path d="M37.0962 4H10.9002C9.29708 4 8 5.29708 8 6.9002V33.098C8 34.6994 9.29708 36 10.9002 36H37.098C38.6994 36 40 34.7011 40 33.098V6.9002C40 6.51904 39.9249 6.14162 39.7789 5.78952C39.6329 5.43742 39.419 5.11755 39.1493 4.84819C38.8796 4.57884 38.5595 4.36528 38.2072 4.21974C37.8549 4.07421 37.4774 3.99953 37.0962 4ZM18.6934 10.2221C19.7556 10.2221 20.647 11.0619 20.647 12.1401C20.647 13.2361 19.7556 14.0617 18.6934 14.0617V14.1009C17.6187 14.1009 16.754 13.2361 16.754 12.165C16.754 11.0886 17.6187 10.2221 18.6934 10.2221ZM31.778 28.641C29.7995 28.641 28.8405 27.4631 28.8405 25.8547C28.8405 25.3921 28.8992 24.9063 29.0433 24.4099L29.9828 21.0186C30.1038 20.6485 30.1358 20.298 30.1358 19.9849C30.1358 18.8906 29.4686 18.2341 28.4081 18.2341C27.0541 18.2341 26.1663 19.2002 25.7036 21.0773L23.8657 28.4542H20.6434L21.2252 26.1358C20.2751 27.6891 18.9638 28.6481 17.3411 28.6481C15.3804 28.6481 14.4641 27.5236 14.4641 25.8298C14.4719 25.3442 14.5291 24.8607 14.6349 24.3868L16.1045 18.3978H13.8306L14.521 15.8534H19.9922L17.8286 24.401C17.6863 24.9508 17.6329 25.3956 17.6329 25.7141C17.6329 26.2603 17.8962 26.4187 18.3179 26.5183C18.5777 26.5717 20.6221 26.5379 21.7306 24.0701L23.1504 18.3978H20.848L21.5437 15.8997H26.5025L25.8638 18.7768C26.7249 17.1772 28.4473 15.6417 30.1447 15.6417C31.9453 15.6417 33.4452 16.937 33.4452 19.3977C33.4452 20.1094 33.3331 20.814 33.1249 21.4972L32.1997 24.8031C32.1235 25.0892 32.0788 25.3827 32.0663 25.6785C32.0663 26.2586 32.3083 26.5397 32.721 26.5397C33.1445 26.5397 33.705 26.2176 34.3206 24.4544L35.5803 24.9383C34.8437 27.5592 33.4772 28.641 31.778 28.641Z" fill="black"/>
</g>
<defs>
<filter id="filter0_d" x="0" y="0" width="48" height="48" filterUnits="userSpaceOnUse" color-interpolation-filters="sRGB">
<feFlood flood-opacity="0" result="BackgroundImageFix"/>
<feColorMatrix in="SourceAlpha" type="matrix" values="0 0 0 0 0 0 0 0 0 0 0 0 0 0 0 0 0 0 127 0"/>
<feOffset dy="4"/>
<feGaussianBlur stdDeviation="4"/>
<feColorMatrix type="matrix" values="0 0 0 0 0 0 0 0 0 0 0 0 0 0 0 0 0 0 0.25 0"/>
<feBlend mode="normal" in2="BackgroundImageFix" result="effect1_dropShadow"/>
<feBlend mode="normal" in="SourceGraphic" in2="effect1_dropShadow" result="shape"/>
</filter>
</defs>
</svg>
