<svg width="48" height="48" viewBox="0 0 48 48" fill="none" xmlns="http://www.w3.org/2000/svg">
<g filter="url(#filter0_d)">
<path d="M39.988 12.167C39.988 11.183 39.905 10.203 39.67 9.245C39.248 7.5 38.253 6.167 36.764 5.188C35.998 4.688 35.155 4.381 34.259 4.219C33.5709 4.09862 32.8744 4.03241 32.176 4.021C32.124 4.016 32.067 4.005 32.009 4H15.978C15.775 4.016 15.572 4.026 15.369 4.036C14.374 4.093 13.385 4.197 12.447 4.572C10.666 5.275 9.379 6.504 8.629 8.275C8.369 8.874 8.238 9.509 8.145 10.155C8.067 10.676 8.025 11.202 8.01 11.728C8.01 11.77 8 11.811 8 11.853V28.15L8.031 28.713C8.099 29.802 8.239 30.88 8.698 31.88C9.563 33.771 11.016 35.015 13.011 35.614C13.568 35.786 14.152 35.864 14.735 35.916C15.475 35.989 16.214 35.999 16.954 35.999H31.662C32.36 35.999 33.058 35.952 33.756 35.864C34.855 35.723 35.886 35.4 36.819 34.786C37.9234 34.0706 38.7942 33.0475 39.324 31.843C39.574 31.28 39.715 30.682 39.819 30.077C39.97 29.176 40.001 28.264 40.001 27.353C39.996 22.29 40.001 17.228 39.996 12.165L39.988 12.167ZM31.425 17.484V25.099C31.425 25.656 31.347 26.203 31.097 26.708C30.712 27.494 30.087 27.989 29.248 28.229C28.7832 28.3622 28.3041 28.4391 27.821 28.458C27.2135 28.4939 26.6139 28.3052 26.1365 27.9277C25.6591 27.5503 25.3372 27.0104 25.232 26.411C25.1356 25.8717 25.2189 25.3156 25.4691 24.8282C25.7193 24.3408 26.1226 23.949 26.617 23.713C27.044 23.505 27.508 23.38 27.971 23.286C28.476 23.177 28.981 23.078 29.481 22.963C29.851 22.88 30.09 22.656 30.163 22.275C30.184 22.192 30.189 22.103 30.189 22.02V14.76C30.1872 14.6772 30.1751 14.5949 30.153 14.515C30.101 14.312 29.955 14.192 29.747 14.202C29.533 14.212 29.325 14.249 29.117 14.291C28.101 14.489 27.086 14.692 26.075 14.9L21.143 15.895C21.122 15.9 21.096 15.911 21.075 15.911C20.705 16.015 20.575 16.182 20.559 16.567C20.554 16.624 20.559 16.682 20.559 16.739C20.554 20.208 20.559 23.677 20.554 27.145C20.554 27.708 20.491 28.26 20.268 28.78C19.898 29.634 19.242 30.171 18.357 30.426C17.8891 30.5622 17.406 30.6391 16.919 30.655C15.643 30.702 14.58 29.853 14.362 28.598C14.174 27.515 14.669 26.348 15.898 25.827C16.377 25.629 16.872 25.52 17.377 25.416L18.523 25.182C19.033 25.073 19.299 24.75 19.325 24.229V24.031V12.187C19.325 12.02 19.346 11.854 19.382 11.692C19.476 11.312 19.747 11.093 20.111 11.004C20.45 10.915 20.799 10.853 21.142 10.78C22.121 10.582 23.095 10.384 24.074 10.191L27.1 9.576C27.996 9.399 28.886 9.217 29.782 9.04C30.074 8.983 30.371 8.92 30.667 8.899C31.078 8.863 31.365 9.123 31.407 9.54C31.417 9.639 31.423 9.738 31.423 9.837V17.478L31.425 17.484Z" fill="black"/>
</g>
<defs>
<filter id="filter0_d" x="0" y="0" width="48.001" height="47.999" filterUnits="userSpaceOnUse" color-interpolation-filters="sRGB">
<feFlood flood-opacity="0" result="BackgroundImageFix"/>
<feColorMatrix in="SourceAlpha" type="matrix" values="0 0 0 0 0 0 0 0 0 0 0 0 0 0 0 0 0 0 127 0"/>
<feOffset dy="4"/>
<feGaussianBlur stdDeviation="4"/>
<feColorMatrix type="matrix" values="0 0 0 0 0 0 0 0 0 0 0 0 0 0 0 0 0 0 0.25 0"/>
<feBlend mode="normal" in2="BackgroundImageFix" result="effect1_dropShadow"/>
<feBlend mode="normal" in="SourceGraphic" in2="effect1_dropShadow" result="shape"/>
</filter>
</defs>
</svg>
