<svg width="20" height="20" viewBox="0 0 20 20" fill="none" xmlns="http://www.w3.org/2000/svg">
<path d="M18 6.42003C18.2652 6.42003 18.5196 6.31468 18.7071 6.12714C18.8946 5.9396 19 5.68525 19 5.42003V1.91003C19 1.64482 18.8946 1.39046 18.7071 1.20293C18.5196 1.01539 18.2652 0.910034 18 0.910034C17.7348 0.910034 17.4804 1.01539 17.2929 1.20293C17.1054 1.39046 17 1.64482 17 1.91003V5.42003C17 5.68525 17.1054 5.9396 17.2929 6.12714C17.4804 6.31468 17.7348 6.42003 18 6.42003Z" fill="black"/>
<path d="M18 29.58C17.7348 29.58 17.4804 29.6853 17.2929 29.8728C17.1054 30.0604 17 30.3147 17 30.58V34.09C17 34.3552 17.1054 34.6095 17.2929 34.7971C17.4804 34.9846 17.7348 35.09 18 35.09C18.2652 35.09 18.5196 34.9846 18.7071 34.7971C18.8946 34.6095 19 34.3552 19 34.09V30.58C19 30.3147 18.8946 30.0604 18.7071 29.8728C18.5196 29.6853 18.2652 29.58 18 29.58Z" fill="black"/>
<path d="M8.39999 9.81002C8.59129 9.97385 8.83737 10.0595 9.08905 10.0497C9.34072 10.04 9.57946 9.93568 9.75756 9.75759C9.93565 9.57949 10.04 9.34075 10.0497 9.08908C10.0594 8.8374 9.97382 8.59132 9.80999 8.40002L7.32999 5.92002C7.13869 5.7562 6.89261 5.67059 6.64094 5.68031C6.38926 5.69003 6.15052 5.79436 5.97243 5.97246C5.79433 6.15055 5.69 6.38929 5.68028 6.64097C5.67056 6.89265 5.75617 7.13872 5.91999 7.33002L8.39999 9.81002Z" fill="black"/>
<path d="M27.6 26.19C27.4087 26.0262 27.1626 25.9406 26.911 25.9503C26.6593 25.9601 26.4205 26.0644 26.2424 26.2425C26.0644 26.4206 25.96 26.6593 25.9503 26.911C25.9406 27.1627 26.0262 27.4087 26.19 27.6L28.67 30.08C28.8613 30.2439 29.1074 30.3295 29.3591 30.3198C29.6107 30.31 29.8495 30.2057 30.0276 30.0276C30.2057 29.8495 30.31 29.6108 30.3197 29.3591C30.3294 29.1074 30.2438 28.8613 30.08 28.67L27.6 26.19Z" fill="black"/>
<path d="M6.42 18C6.42 17.7348 6.31465 17.4804 6.12711 17.2929C5.93957 17.1054 5.68522 17 5.42 17H1.91C1.64479 17 1.39043 17.1054 1.2029 17.2929C1.01536 17.4804 0.910004 17.7348 0.910004 18C0.910004 18.2652 1.01536 18.5196 1.2029 18.7071C1.39043 18.8946 1.64479 19 1.91 19H5.42C5.68522 19 5.93957 18.8946 6.12711 18.7071C6.31465 18.5196 6.42 18.2652 6.42 18Z" fill="black"/>
<path d="M34.09 17H30.58C30.3148 17 30.0604 17.1054 29.8729 17.2929C29.6853 17.4804 29.58 17.7348 29.58 18C29.58 18.2652 29.6853 18.5196 29.8729 18.7071C30.0604 18.8946 30.3148 19 30.58 19H34.09C34.3552 19 34.6096 18.8946 34.7971 18.7071C34.9846 18.5196 35.09 18.2652 35.09 18C35.09 17.7348 34.9846 17.4804 34.7971 17.2929C34.6096 17.1054 34.3552 17 34.09 17Z" fill="black"/>
<path d="M8.39999 26.19L5.91999 28.67C5.75617 28.8613 5.67056 29.1074 5.68028 29.3591C5.69 29.6108 5.79433 29.8495 5.97243 30.0276C6.15052 30.2057 6.38926 30.31 6.64094 30.3198C6.89261 30.3295 7.13869 30.2439 7.32999 30.08L9.80999 27.6C9.97382 27.4087 10.0594 27.1627 10.0497 26.911C10.04 26.6593 9.93565 26.4206 9.75756 26.2425C9.57946 26.0644 9.34072 25.9601 9.08905 25.9503C8.83737 25.9406 8.59129 26.0262 8.39999 26.19Z" fill="black"/>
<path d="M27.6 9.81002L30.08 7.33002C30.2438 7.13872 30.3294 6.89265 30.3197 6.64097C30.31 6.38929 30.2057 6.15055 30.0276 5.97246C29.8495 5.79436 29.6107 5.69003 29.3591 5.68031C29.1074 5.67059 28.8613 5.7562 28.67 5.92002L26.19 8.40002C26.0262 8.59132 25.9406 8.8374 25.9503 9.08908C25.96 9.34075 26.0644 9.57949 26.2424 9.75759C26.4205 9.93568 26.6593 10.04 26.911 10.0497C27.1626 10.0595 27.4087 9.97385 27.6 9.81002Z" fill="black"/>
<path d="M18 28C23.5228 28 28 23.5228 28 18C28 12.4772 23.5228 8 18 8C12.4772 8 8 12.4772 8 18C8 23.5228 12.4772 28 18 28Z" fill="black"/>
</svg>
