<svg width="48" height="48" viewBox="0 0 48 48" fill="none" xmlns="http://www.w3.org/2000/svg">
<g filter="url(#filter0_d)">
<path d="M24.0007 23.2077C25.5766 23.2077 26.854 21.7719 26.854 20.0008C26.854 18.2296 25.5766 16.7938 24.0007 16.7938C22.4249 16.7938 21.1475 18.2296 21.1475 20.0008C21.1475 21.7719 22.4249 23.2077 24.0007 23.2077Z" fill="black"/>
<path d="M16.0116 26.3769L15.3802 26.1955C10.6902 24.8642 8 22.6005 8 19.9936C8 17.3849 10.6918 15.123 15.3802 13.7917L16.0116 13.612L16.189 14.3145C16.663 16.1537 17.2704 17.9461 18.0049 19.6738L18.1408 19.9936L18.0049 20.3134C17.2696 22.0435 16.6606 23.8365 16.189 25.6762L16.0116 26.3769ZM15.0893 15.4266C11.5263 16.5549 9.33793 18.276 9.33793 19.9936C9.33793 21.7075 11.5247 23.4305 15.0893 24.557C15.5257 22.9975 16.0531 21.4722 16.6638 19.9936C16.0487 18.5125 15.5227 16.9868 15.0893 15.4266ZM31.9884 26.3769L31.8126 25.6726C31.3373 23.8331 30.7295 22.0402 29.9951 20.3116L29.8592 19.9936L29.9951 19.672C30.7304 17.9454 31.3362 16.1506 31.8126 14.3109L31.9884 13.6102L32.6198 13.7899C37.3114 15.1212 40 17.3831 40 19.9936C40 22.6022 37.3098 24.8642 32.6198 26.1955L31.9884 26.3769ZM31.333 19.9936C31.9724 21.5494 32.5047 23.0801 32.9107 24.557C36.4753 23.4305 38.6637 21.7075 38.6637 19.9936C38.6637 18.276 36.4769 16.5567 32.9107 15.4266C32.4748 16.9863 31.9477 18.5119 31.333 19.9936Z" fill="black"/>
<path d="M15.0797 15.4195L14.9039 14.7188C13.5835 9.49426 13.9832 5.75193 16.002 4.44759C17.9762 3.16302 21.1524 4.68115 24.4788 8.51691L24.9328 9.04152L24.4788 9.56433C23.2973 10.9454 22.2175 12.4318 21.2499 14.0091L21.0692 14.3002L20.7559 14.3289C19.0545 14.4791 17.3668 14.785 15.7095 15.2434L15.0797 15.4195ZM17.6085 5.48603C17.2505 5.48603 16.934 5.57406 16.667 5.74654C15.3435 6.60352 15.1101 9.58768 16.0212 13.6157C17.4455 13.2617 18.8825 13.0084 20.3307 12.8665C21.1692 11.5299 22.0838 10.2558 23.0689 9.0523C20.9861 6.77599 19.02 5.48603 17.6085 5.48603ZM30.3916 35.9996C28.4926 35.9996 26.0533 34.3898 23.5213 31.4686L23.0689 30.9457L23.5213 30.4247C24.703 29.0415 25.7833 27.5532 26.7518 25.9745L26.9309 25.6871L27.241 25.6529C28.943 25.5054 30.6314 25.2008 32.289 24.7421L32.9204 24.5624L33.0978 25.2649C34.4118 30.4858 34.0137 34.2335 31.998 35.5379C31.5086 35.8497 30.9541 36.0091 30.3916 35.9996ZM24.9328 30.9332C27.014 33.2095 28.9817 34.5012 30.3916 34.5012C30.7512 34.5012 31.0677 34.4114 31.3331 34.2407C32.6582 33.3819 32.8932 30.3924 31.9789 26.3644C30.5562 26.7201 29.1176 26.9752 27.6662 27.1172C26.8313 28.4559 25.9181 29.7307 24.9328 30.9332Z" fill="black"/>
<path d="M32.9203 15.419L32.2889 15.2411C30.6314 14.7813 28.9431 14.4754 27.2409 14.3267L26.9308 14.2961L26.7518 14.0051C25.7846 12.4269 24.7042 10.9403 23.5213 9.56026L23.0689 9.03745L23.5213 8.51643C26.8461 4.68247 30.0207 3.16434 31.998 4.44711C34.0153 5.75325 34.4165 9.49558 33.0978 14.7183L32.9203 15.419ZM27.6661 12.866C29.1911 13.0187 30.6361 13.2756 31.9788 13.6152C32.8916 9.58721 32.6582 6.60304 31.3331 5.74426C30.0159 4.88728 27.5367 6.19881 24.9327 9.05182C25.9174 10.2555 26.8317 11.5275 27.6661 12.866ZM17.6085 35.9991C17.046 36.0082 16.4916 35.8488 16.002 35.5374C13.9831 34.2331 13.5835 30.4871 14.9023 25.2644L15.0749 24.5619L15.7063 24.7416C17.2472 25.1782 18.9448 25.4854 20.7543 25.6525L21.0644 25.6866L21.245 25.9741C22.2105 27.5515 23.2911 29.0409 24.474 30.4243L24.9279 30.9453L24.474 31.4681C21.9436 34.3912 19.5043 35.9991 17.6085 35.9991ZM16.0212 26.3657C15.1101 30.3937 15.3434 33.3833 16.667 34.242C17.9857 35.0865 20.457 33.7839 23.0689 30.9327C22.0842 29.7288 21.1695 28.4547 20.3307 27.1185C18.881 26.9744 17.4414 26.7229 16.0212 26.3657Z" fill="black"/>
<path d="M24.0008 27.3093C22.9027 27.3093 21.7758 27.2572 20.644 27.1512L20.3307 27.1207L20.1501 26.8296C19.5119 25.7982 18.9115 24.7379 18.3502 23.6514C17.7931 22.562 17.2753 21.4478 16.7981 20.3115L16.6638 19.9935L16.7981 19.6719C17.276 18.5365 17.7923 17.4226 18.3502 16.3338C18.9049 15.2631 19.5107 14.1923 20.1501 13.1538L20.3307 12.8664L20.644 12.834C22.8769 12.6238 25.1216 12.6238 27.3545 12.834L27.6646 12.8682L27.8452 13.1556C29.1237 15.2195 30.2465 17.3998 31.202 19.6737L31.3347 19.9953L31.202 20.3133C30.2491 22.5888 29.1262 24.7694 27.8452 26.8314L27.6646 27.1225L27.3545 27.153C26.2259 27.2554 25.0974 27.3093 24.0008 27.3093ZM21.0692 25.6852C23.0434 25.8523 24.9583 25.8523 26.9309 25.6852C28.032 23.8728 29.0109 21.9702 29.8593 19.9935C29.0139 18.015 28.0349 16.1122 26.9309 14.3019C24.9799 14.133 23.0202 14.133 21.0692 14.3019C19.9643 16.1116 18.9852 18.0145 18.1408 19.9935C18.991 21.9691 19.9698 23.8715 21.0692 25.6852Z" fill="black"/>
</g>
<defs>
<filter id="filter0_d" x="0" y="0" width="48" height="48" filterUnits="userSpaceOnUse" color-interpolation-filters="sRGB">
<feFlood flood-opacity="0" result="BackgroundImageFix"/>
<feColorMatrix in="SourceAlpha" type="matrix" values="0 0 0 0 0 0 0 0 0 0 0 0 0 0 0 0 0 0 127 0"/>
<feOffset dy="4"/>
<feGaussianBlur stdDeviation="4"/>
<feColorMatrix type="matrix" values="0 0 0 0 0 0 0 0 0 0 0 0 0 0 0 0 0 0 0.25 0"/>
<feBlend mode="normal" in2="BackgroundImageFix" result="effect1_dropShadow"/>
<feBlend mode="normal" in="SourceGraphic" in2="effect1_dropShadow" result="shape"/>
</filter>
</defs>
</svg>
