<svg width="48" height="48" viewBox="0 0 48 48" fill="none" xmlns="http://www.w3.org/2000/svg">
<g filter="url(#filter0_d)">
<path d="M25.2308 12.2622L30.7692 15.4446L38.8135 11.5904L25.2308 4V12.2622Z" fill="black"/>
<path d="M22.7694 4.00232L9.18665 11.5904L17.231 15.4422L22.7694 12.2599V4.00468V4.00232Z" fill="black"/>
<path d="M8 13.6578V26.439L16.6154 22.7711V17.7854L8 13.6578Z" fill="black"/>
<path d="M9.28723 28.4684L22.7691 35.9999V27.74L17.7623 24.8641L9.28723 28.4708V28.4684Z" fill="black"/>
<path d="M25.2307 35.9999L38.7126 28.4684L30.2375 24.8618L25.2307 27.74V35.9999Z" fill="black"/>
<path d="M40 26.4366V13.6602L31.3846 17.7854V22.7734L40 26.4413V26.4366Z" fill="black"/>
<path d="M25.2307 24.9916L28.923 22.87V18.9617L25.2307 20.7296V24.9916Z" fill="black"/>
<path d="M22.7692 20.7296V24.9916L19.0769 22.87V18.9617L22.7692 20.7296Z" fill="black"/>
<path d="M19.8425 16.6915L24.0001 18.6834L28.1576 16.6915L24.0001 14.3036L19.8425 16.6915Z" fill="black"/>
</g>
<defs>
<filter id="filter0_d" x="0" y="0" width="48" height="47.9999" filterUnits="userSpaceOnUse" color-interpolation-filters="sRGB">
<feFlood flood-opacity="0" result="BackgroundImageFix"/>
<feColorMatrix in="SourceAlpha" type="matrix" values="0 0 0 0 0 0 0 0 0 0 0 0 0 0 0 0 0 0 127 0"/>
<feOffset dy="4"/>
<feGaussianBlur stdDeviation="4"/>
<feColorMatrix type="matrix" values="0 0 0 0 0 0 0 0 0 0 0 0 0 0 0 0 0 0 0.25 0"/>
<feBlend mode="normal" in2="BackgroundImageFix" result="effect1_dropShadow"/>
<feBlend mode="normal" in="SourceGraphic" in2="effect1_dropShadow" result="shape"/>
</filter>
</defs>
</svg>
