<svg width="48" height="48" viewBox="0 0 48 48" fill="none" xmlns="http://www.w3.org/2000/svg">
<g filter="url(#filter0_d)">
<path d="M24 4C19.7565 4 15.6869 5.68571 12.6863 8.68629C9.68571 11.6869 8 15.7565 8 20C8 24.2435 9.68571 28.3131 12.6863 31.3137C15.6869 34.3143 19.7565 36 24 36C28.2435 36 32.3131 34.3143 35.3137 31.3137C38.3143 28.3131 40 24.2435 40 20C40 15.7565 38.3143 11.6869 35.3137 8.68629C32.3131 5.68571 28.2435 4 24 4V4ZM28.2173 33.044H28.0933C28.0002 33.0493 27.907 33.0354 27.8194 33.0033C27.7318 32.9712 27.6517 32.9215 27.584 32.8573C27.5215 32.7912 27.4727 32.7133 27.4407 32.6281C27.4086 32.543 27.3939 32.4523 27.3973 32.3613V30.4867C27.4053 29.864 27.4107 29.2333 27.4107 28.5987C27.4085 28.1346 27.3407 27.6731 27.2093 27.228C27.0849 26.778 26.8341 26.3732 26.4867 26.0613C27.416 25.9716 28.3295 25.7605 29.204 25.4333C29.9416 25.1528 30.6088 24.7141 31.1587 24.148C31.7013 23.5787 32.1053 22.8907 32.3387 22.14C32.6225 21.2207 32.7575 20.2619 32.7387 19.3C32.7439 18.6284 32.6264 17.9614 32.392 17.332C32.1538 16.6976 31.7937 16.116 31.332 15.62C31.4317 15.3698 31.5041 15.1097 31.548 14.844C31.592 14.5773 31.6147 14.308 31.6147 14.0387C31.6147 13.692 31.5747 13.3453 31.4947 13.008C31.422 12.662 31.3235 12.3219 31.2 11.9907C31.1529 11.9723 31.1026 11.9632 31.052 11.964H30.9053C30.5987 11.9667 30.2973 12.0173 30.0067 12.112C29.6865 12.2055 29.3733 12.3213 29.0693 12.4587C28.7671 12.5942 28.4728 12.7468 28.188 12.916C27.9013 13.0853 27.648 13.248 27.424 13.3987C25.181 12.7735 22.8097 12.7735 20.5667 13.3987C20.3165 13.2314 20.0622 13.0705 19.804 12.916C19.5152 12.7454 19.2159 12.5931 18.908 12.46C18.6049 12.3181 18.2905 12.2017 17.968 12.112C17.6831 12.0179 17.3854 11.968 17.0853 11.964H16.9387C16.8885 11.9633 16.8387 11.9723 16.792 11.9907C16.6667 12.3224 16.5643 12.6623 16.4853 13.008C16.4133 13.3467 16.3787 13.692 16.3773 14.0387C16.3773 14.308 16.4 14.5773 16.4453 14.844C16.4893 15.1093 16.56 15.3693 16.6587 15.62C16.1981 16.1166 15.8394 16.6987 15.6027 17.3333C15.367 17.9625 15.2482 18.6295 15.252 19.3013C15.2334 20.2581 15.3647 21.2119 15.6413 22.128C15.8827 22.8787 16.2853 23.568 16.82 24.1493C17.3733 24.712 18.04 25.1493 18.7747 25.4347C19.6453 25.768 20.5573 25.9813 21.4853 26.0693C21.2262 26.3042 21.0207 26.592 20.8827 26.9133C20.7514 27.2311 20.6617 27.5646 20.616 27.9053C20.1268 28.1396 19.5917 28.2625 19.0493 28.2653C18.5456 28.2855 18.0485 28.1455 17.6293 27.8653C17.2273 27.5674 16.8867 27.1942 16.6267 26.7667C16.5103 26.5871 16.3801 26.4168 16.2373 26.2573C16.0867 26.0897 15.9207 25.9365 15.7413 25.8C15.5646 25.6679 15.3708 25.5603 15.1653 25.48C14.9631 25.3913 14.7448 25.3455 14.524 25.3453C14.4707 25.3467 14.4173 25.352 14.364 25.3587C14.2912 25.3584 14.2186 25.3674 14.148 25.3853C14.086 25.4016 14.0273 25.4287 13.9747 25.4653C13.9507 25.4785 13.9307 25.4978 13.9167 25.5212C13.9026 25.5446 13.895 25.5714 13.8947 25.5987C13.9003 25.6628 13.9199 25.725 13.9521 25.7807C13.9844 25.8365 14.0285 25.8845 14.0813 25.9213C14.2053 26.02 14.308 26.096 14.3907 26.1493L14.4307 26.1773C14.608 26.3147 14.7787 26.4627 14.94 26.6213C15.0893 26.752 15.224 26.9 15.34 27.0613C15.46 27.22 15.564 27.3893 15.648 27.5693C15.7453 27.748 15.848 27.9533 15.956 28.1867C16.2067 28.8187 16.652 29.3533 17.228 29.7133C17.832 30.0373 18.5093 30.1987 19.196 30.1813C19.428 30.1813 19.6613 30.168 19.892 30.1413C20.1213 30.104 20.3493 30.0653 20.5787 30.02V32.344C20.5828 32.4377 20.5671 32.5312 20.5327 32.6185C20.4982 32.7057 20.4457 32.7847 20.3787 32.8502C20.3116 32.9158 20.2314 32.9665 20.1434 32.9989C20.0554 33.0314 19.9616 33.0449 19.868 33.0387H19.7853C16.6761 32.0342 14.0276 29.9527 12.3168 27.1688C10.606 24.385 9.94529 21.0818 10.4537 17.8541C10.9621 14.6264 12.6062 11.6863 15.09 9.56315C17.5737 7.44003 20.7338 6.27343 24.0013 6.27343C27.2688 6.27343 30.429 7.44003 32.9127 9.56315C35.3964 11.6863 37.0405 14.6264 37.549 17.8541C38.0574 21.0818 37.3967 24.385 35.6859 27.1688C33.9751 29.9527 31.3266 32.0342 28.2173 33.0387V33.0453V33.044Z" fill="black"/>
</g>
<defs>
<filter id="filter0_d" x="0" y="0" width="48" height="48" filterUnits="userSpaceOnUse" color-interpolation-filters="sRGB">
<feFlood flood-opacity="0" result="BackgroundImageFix"/>
<feColorMatrix in="SourceAlpha" type="matrix" values="0 0 0 0 0 0 0 0 0 0 0 0 0 0 0 0 0 0 127 0"/>
<feOffset dy="4"/>
<feGaussianBlur stdDeviation="4"/>
<feColorMatrix type="matrix" values="0 0 0 0 0 0 0 0 0 0 0 0 0 0 0 0 0 0 0.25 0"/>
<feBlend mode="normal" in2="BackgroundImageFix" result="effect1_dropShadow"/>
<feBlend mode="normal" in="SourceGraphic" in2="effect1_dropShadow" result="shape"/>
</filter>
</defs>
</svg>
