<svg width="48" height="48" viewBox="0 0 48 48" fill="none" xmlns="http://www.w3.org/2000/svg">
<g filter="url(#filter0_d)">
<path fill-rule="evenodd" clip-rule="evenodd" d="M8 20.0893C8 28.044 13.7773 34.6587 21.3333 36V24.444H17.3333V20H21.3333V16.444C21.3333 12.444 23.9107 10.2227 27.556 10.2227C28.7107 10.2227 29.956 10.4 31.1107 10.5773V14.6667H29.0667C27.1107 14.6667 26.6667 15.644 26.6667 16.8893V20H30.9333L30.2227 24.444H26.6667V36C34.2227 34.6587 40 28.0453 40 20.0893C40 11.24 32.8 4 24 4C15.2 4 8 11.24 8 20.0893Z" fill="black"/>
</g>
<defs>
<filter id="filter0_d" x="0" y="0" width="48" height="48" filterUnits="userSpaceOnUse" color-interpolation-filters="sRGB">
<feFlood flood-opacity="0" result="BackgroundImageFix"/>
<feColorMatrix in="SourceAlpha" type="matrix" values="0 0 0 0 0 0 0 0 0 0 0 0 0 0 0 0 0 0 127 0"/>
<feOffset dy="4"/>
<feGaussianBlur stdDeviation="4"/>
<feColorMatrix type="matrix" values="0 0 0 0 0 0 0 0 0 0 0 0 0 0 0 0 0 0 0.25 0"/>
<feBlend mode="normal" in2="BackgroundImageFix" result="effect1_dropShadow"/>
<feBlend mode="normal" in="SourceGraphic" in2="effect1_dropShadow" result="shape"/>
</filter>
</defs>
</svg>
