<svg width="48" height="48" viewBox="0 0 48 48" fill="none" xmlns="http://www.w3.org/2000/svg">
<g filter="url(#filter0_d)">
<path d="M8 10.6667C8 8.89856 8.70238 7.20286 9.95262 5.95262C11.2029 4.70238 12.8986 4 14.6667 4H33.3333C35.1014 4 36.7971 4.70238 38.0474 5.95262C39.2976 7.20286 40 8.89856 40 10.6667V29.3333C40 31.1014 39.2976 32.7971 38.0474 34.0474C36.7971 35.2976 35.1014 36 33.3333 36H14.6667C12.8986 36 11.2029 35.2976 9.95262 34.0474C8.70238 32.7971 8 31.1014 8 29.3333V10.6667ZM22.6667 14.6667C22.313 14.6667 21.9739 14.8071 21.7239 15.0572C21.4738 15.3072 21.3333 15.6464 21.3333 16V26.6667C21.3333 27.0203 21.1929 27.3594 20.9428 27.6095C20.6928 27.8595 20.3536 28 20 28H17.3333C16.9797 28 16.6406 28.1405 16.3905 28.3905C16.1405 28.6406 16 28.9797 16 29.3333C16 29.687 16.1405 30.0261 16.3905 30.2761C16.6406 30.5262 16.9797 30.6667 17.3333 30.6667H20C21.0609 30.6667 22.0783 30.2452 22.8284 29.4951C23.5786 28.7449 24 27.7275 24 26.6667V16C24 15.6464 23.8595 15.3072 23.6095 15.0572C23.3594 14.8071 23.0203 14.6667 22.6667 14.6667ZM25.3333 18.6667V20C25.3333 21.0609 25.7548 22.0783 26.5049 22.8284C27.2551 23.5786 28.2725 24 29.3333 24H30.6667C31.0203 24 31.3594 24.1405 31.6095 24.3905C31.8595 24.6406 32 24.9797 32 25.3333V26.6667C32 27.0203 31.8595 27.3594 31.6095 27.6095C31.3594 27.8595 31.0203 28 30.6667 28H26.6667C26.313 28 25.9739 28.1405 25.7239 28.3905C25.4738 28.6406 25.3333 28.9797 25.3333 29.3333C25.3333 29.687 25.4738 30.0261 25.7239 30.2761C25.9739 30.5262 26.313 30.6667 26.6667 30.6667H30.6667C31.7275 30.6667 32.7449 30.2452 33.4951 29.4951C34.2452 28.7449 34.6667 27.7275 34.6667 26.6667V25.3333C34.6667 24.2725 34.2452 23.2551 33.4951 22.5049C32.7449 21.7548 31.7275 21.3333 30.6667 21.3333H29.3333C28.9797 21.3333 28.6406 21.1929 28.3905 20.9428C28.1405 20.6928 28 20.3536 28 20V18.6667C28 18.313 28.1405 17.9739 28.3905 17.7239C28.6406 17.4738 28.9797 17.3333 29.3333 17.3333H33.3333C33.687 17.3333 34.0261 17.1929 34.2761 16.9428C34.5262 16.6928 34.6667 16.3536 34.6667 16C34.6667 15.6464 34.5262 15.3072 34.2761 15.0572C34.0261 14.8071 33.687 14.6667 33.3333 14.6667H29.3333C28.2725 14.6667 27.2551 15.0881 26.5049 15.8382C25.7548 16.5884 25.3333 17.6058 25.3333 18.6667Z" fill="black"/>
</g>
<defs>
<filter id="filter0_d" x="0" y="0" width="48" height="48" filterUnits="userSpaceOnUse" color-interpolation-filters="sRGB">
<feFlood flood-opacity="0" result="BackgroundImageFix"/>
<feColorMatrix in="SourceAlpha" type="matrix" values="0 0 0 0 0 0 0 0 0 0 0 0 0 0 0 0 0 0 127 0"/>
<feOffset dy="4"/>
<feGaussianBlur stdDeviation="4"/>
<feColorMatrix type="matrix" values="0 0 0 0 0 0 0 0 0 0 0 0 0 0 0 0 0 0 0.25 0"/>
<feBlend mode="normal" in2="BackgroundImageFix" result="effect1_dropShadow"/>
<feBlend mode="normal" in="SourceGraphic" in2="effect1_dropShadow" result="shape"/>
</filter>
</defs>
</svg>
