<svg width="155" height="159" viewBox="0 0 155 159" fill="none" xmlns="http://www.w3.org/2000/svg">
<path d="M37.5 142.228L74.5 51.228L112.5 142.228" stroke="#0B183B" stroke-width="6"/>
<path d="M49.5 138.228V53.228" stroke="#0B183B" stroke-width="6"/>
<path d="M99.5 138.228V53.228" stroke="#0B183B" stroke-width="6"/>
<path d="M50 83.728H151" stroke="#0B183B" stroke-width="6"/>
<path d="M99.5 106.728H0" stroke="#0B183B" stroke-width="6"/>
<path d="M18.9211 105.593C12.612 89.7513 12.5322 72.1091 18.6976 56.2113C24.8629 40.3135 36.8167 27.3382 52.1567 19.8927C67.4967 12.4471 85.0862 11.0831 101.391 16.0748C117.695 21.0665 131.506 32.0439 140.049 46.8011" stroke="#0B183B" stroke-width="6"/>
<path d="M151.068 80.6211C152.112 97.9573 145.708 114.83 133.143 127.847C120.578 140.865 102.783 149.064 83.3337 150.795C63.8842 152.527 44.2217 147.664 28.2974 137.184" stroke="#0B183B" stroke-width="6"/>
</svg>
